<svg width="141" height="42" viewBox="0 0 141 42" fill="none" xmlns="http://www.w3.org/2000/svg">
<circle cx="137" cy="27" r="4" fill="#E9D921"/>
<path d="M20.1953 11.5996L19.0742 16.4531H18.0488C18.0124 15.4779 17.8027 14.6348 17.4199 13.9238C17.0462 13.2038 16.5859 12.8027 16.0391 12.7207C15.7565 12.6842 15.4238 12.6569 15.041 12.6387C14.6673 12.6204 14.2344 12.6113 13.7422 12.6113H10.4199L8.60156 20.5H10.8301C11.3587 20.5 11.8418 20.4453 12.2793 20.3359C12.7168 20.2174 13.1406 19.9759 13.5508 19.6113C13.7604 19.4199 13.9928 19.11 14.248 18.6816C14.5124 18.2533 14.722 17.7975 14.877 17.3145H15.916L14.166 24.9297H13.127C13.1361 24.8203 13.1452 24.6927 13.1543 24.5469C13.1725 24.401 13.1816 24.2415 13.1816 24.0684C13.1816 23.8132 13.1634 23.5215 13.127 23.1934C13.0905 22.8652 13.0221 22.6191 12.9219 22.4551C12.6758 22.0814 12.3568 21.8353 11.9648 21.7168C11.5729 21.5983 11.1081 21.5391 10.5703 21.5391H8.3418L6.7832 28.334C6.76497 28.4069 6.7513 28.4844 6.74219 28.5664C6.73307 28.6393 6.72852 28.7122 6.72852 28.7852C6.72852 28.9857 6.76953 29.1634 6.85156 29.3184C6.93359 29.4642 7.07487 29.5964 7.27539 29.7148C7.42122 29.7878 7.70833 29.8652 8.13672 29.9473C8.5651 30.0293 8.91602 30.0794 9.18945 30.0977L8.9707 31H0.521484L0.740234 30.0977C1.02279 30.0794 1.38737 30.0521 1.83398 30.0156C2.2806 29.9701 2.58594 29.9154 2.75 29.8516C3.06901 29.724 3.31055 29.5462 3.47461 29.3184C3.63867 29.0814 3.75716 28.8034 3.83008 28.4844L7.09766 14.3477C7.11589 14.2565 7.12956 14.1699 7.13867 14.0879C7.1569 13.9967 7.16602 13.9056 7.16602 13.8145C7.16602 13.6322 7.12956 13.4772 7.05664 13.3496C6.99284 13.2129 6.85156 13.0898 6.63281 12.9805C6.43229 12.8711 6.13607 12.7708 5.74414 12.6797C5.35221 12.5885 5.02409 12.5293 4.75977 12.502L4.97852 11.5996H20.1953ZM25.3223 29.5098L25.1172 30.3848C24.2786 30.722 23.6087 30.9544 23.1074 31.082C22.6061 31.2188 22.1777 31.2871 21.8223 31.2871C21.0931 31.2871 20.5462 31.1003 20.1816 30.7266C19.8171 30.3438 19.6348 29.8743 19.6348 29.3184C19.6348 29.1087 19.653 28.89 19.6895 28.6621C19.7259 28.4342 19.7852 28.1471 19.8672 27.8008L21.3164 21.9902C21.3893 21.6712 21.4577 21.3294 21.5215 20.9648C21.5944 20.6003 21.6309 20.2904 21.6309 20.0352C21.6309 19.5247 21.5443 19.1875 21.3711 19.0234C21.207 18.8503 20.8652 18.7637 20.3457 18.7637C20.1452 18.7637 19.8763 18.7956 19.5391 18.8594C19.2109 18.9232 18.9603 18.9779 18.7871 19.0234L18.9922 18.1484C19.7031 17.8294 20.3411 17.5924 20.9062 17.4375C21.4714 17.2826 21.918 17.2051 22.2461 17.2051C22.9935 17.2051 23.5358 17.3828 23.873 17.7383C24.2103 18.0938 24.3789 18.5723 24.3789 19.1738C24.3789 19.3379 24.3607 19.5612 24.3242 19.8438C24.2878 20.1263 24.2331 20.4089 24.1602 20.6914L22.6973 26.502C22.6061 26.8574 22.5241 27.2083 22.4512 27.5547C22.3874 27.8919 22.3555 28.1699 22.3555 28.3887C22.3555 28.9082 22.4694 29.2637 22.6973 29.4551C22.9342 29.6465 23.3125 29.7422 23.832 29.7422C24.0052 29.7422 24.2513 29.7194 24.5703 29.6738C24.8984 29.6283 25.1491 29.5736 25.3223 29.5098ZM26.293 12.0371C26.293 12.5566 26.1243 13.0124 25.7871 13.4043C25.4499 13.7871 25.0306 13.9785 24.5293 13.9785C24.0645 13.9785 23.6634 13.7962 23.3262 13.4316C22.9889 13.0579 22.8203 12.6341 22.8203 12.1602C22.8203 11.6589 22.9889 11.2214 23.3262 10.8477C23.6634 10.474 24.0645 10.2871 24.5293 10.2871C25.0488 10.2871 25.4727 10.4648 25.8008 10.8203C26.1289 11.1667 26.293 11.5723 26.293 12.0371ZM41.8379 29.4141L41.6328 30.2891C40.8125 30.6172 40.1745 30.8542 39.7188 31C39.263 31.1549 38.8027 31.2324 38.3379 31.2324C37.6087 31.2324 37.0618 31.0456 36.6973 30.6719C36.3327 30.2891 36.1504 29.8197 36.1504 29.2637C36.1504 29.0632 36.1686 28.8444 36.2051 28.6074C36.2415 28.3613 36.3008 28.0742 36.3828 27.7461L37.7227 22.6465C37.8229 22.2546 37.9004 21.8991 37.9551 21.5801C38.0189 21.2611 38.0508 21.0059 38.0508 20.8145C38.0508 20.2038 37.9049 19.7207 37.6133 19.3652C37.3216 19.0098 36.8887 18.832 36.3145 18.832C35.7585 18.832 35.1341 19.0143 34.4414 19.3789C33.7487 19.7435 33.097 20.2721 32.4863 20.9648L30.1758 31H27.6328L29.6699 22.1406C29.7155 21.9219 29.7793 21.6074 29.8613 21.1973C29.9525 20.778 29.998 20.4408 29.998 20.1855C29.998 19.6751 29.9115 19.3333 29.7383 19.1602C29.5651 18.987 29.2188 18.9004 28.6992 18.9004C28.4987 18.9004 28.2435 18.9368 27.9336 19.0098C27.6237 19.0736 27.3822 19.1283 27.209 19.1738L27.4141 18.2988C28.125 17.9798 28.7539 17.7428 29.3008 17.5879C29.8477 17.4329 30.3171 17.3555 30.709 17.3555C31.429 17.3555 31.944 17.5514 32.2539 17.9434C32.5638 18.3353 32.7279 18.8776 32.7461 19.5703H32.8281C33.8307 18.7682 34.6966 18.1758 35.4258 17.793C36.1549 17.401 36.9844 17.2051 37.9141 17.2051C38.7891 17.2051 39.4727 17.4603 39.9648 17.9707C40.457 18.472 40.7031 19.1328 40.7031 19.9531C40.7031 20.1172 40.6758 20.4089 40.6211 20.8281C40.5755 21.2474 40.498 21.6621 40.3887 22.0723L39.2402 26.4609C39.1582 26.7526 39.0762 27.0898 38.9941 27.4727C38.9212 27.8464 38.8848 28.138 38.8848 28.3477C38.8848 28.8672 38.9987 29.2227 39.2266 29.4141C39.4544 29.5964 39.8281 29.6875 40.3477 29.6875C40.5208 29.6875 40.7669 29.6602 41.0859 29.6055C41.4141 29.5417 41.6647 29.4779 41.8379 29.4141ZM52.2832 29.127H52.1875C51.987 29.3001 51.7272 29.528 51.4082 29.8105C51.0892 30.084 50.7565 30.3255 50.4102 30.5352C49.9727 30.8086 49.5671 31.0182 49.1934 31.1641C48.8288 31.3099 48.3776 31.3828 47.8398 31.3828C46.5182 31.3828 45.4792 30.9089 44.7227 29.9609C43.9753 29.0039 43.6016 27.7051 43.6016 26.0645C43.6016 24.916 43.8021 23.8086 44.2031 22.7422C44.6133 21.6758 45.1693 20.7279 45.8711 19.8984C46.5547 19.0964 47.375 18.4492 48.332 17.957C49.2982 17.4557 50.3053 17.2051 51.3535 17.2051C51.9824 17.2051 52.6068 17.2871 53.2266 17.4512C53.8464 17.6152 54.3568 17.8158 54.7578 18.0527L55.8242 13.4043C55.8789 13.1582 55.9154 12.9668 55.9336 12.8301C55.9609 12.6934 55.9746 12.543 55.9746 12.3789C55.9746 12.0508 55.9062 11.8001 55.7695 11.627C55.6419 11.4538 55.4596 11.3262 55.2227 11.2441C55.0039 11.1621 54.7031 11.1074 54.3203 11.0801C53.9375 11.0527 53.5911 11.0208 53.2812 10.9844L53.4727 10.1504L59.0098 9.83594L59.1465 10.041L55.3594 26.4336C55.2865 26.7344 55.209 27.0807 55.127 27.4727C55.054 27.8555 55.0176 28.1471 55.0176 28.3477C55.0176 28.8672 55.127 29.2227 55.3457 29.4141C55.5645 29.5964 55.9336 29.6875 56.4531 29.6875C56.6263 29.6875 56.8724 29.6602 57.1914 29.6055C57.5104 29.5508 57.7565 29.4915 57.9297 29.4277L57.7246 30.3027C56.959 30.6491 56.3255 30.8906 55.8242 31.0273C55.3229 31.1641 54.8581 31.2324 54.4297 31.2324C53.7734 31.2324 53.2493 31.0638 52.8574 30.7266C52.4746 30.3802 52.2832 29.847 52.2832 29.127ZM54.2109 20.418C54.1927 20.1536 54.1243 19.8984 54.0059 19.6523C53.8874 19.3971 53.737 19.1693 53.5547 18.9688C53.3451 18.7409 53.0716 18.554 52.7344 18.4082C52.4062 18.2533 52.0143 18.1758 51.5586 18.1758C50.8568 18.1758 50.1914 18.3945 49.5625 18.832C48.9427 19.2695 48.3958 19.8529 47.9219 20.582C47.4661 21.2839 47.1016 22.1315 46.8281 23.125C46.5547 24.1094 46.418 25.0983 46.418 26.0918C46.418 26.6478 46.4499 27.14 46.5137 27.5684C46.5775 27.9967 46.7005 28.3932 46.8828 28.7578C47.056 29.0951 47.3021 29.3639 47.6211 29.5645C47.9401 29.7559 48.3639 29.8516 48.8926 29.8516C49.3939 29.8516 49.9362 29.7012 50.5195 29.4004C51.112 29.0996 51.7682 28.5755 52.4883 27.8281L54.2109 20.418ZM77.4805 30.0977L77.2617 31H72.3535C71.5788 29.1589 70.8451 27.5866 70.1523 26.2832C69.4688 24.9707 68.7441 23.599 67.9785 22.168H65.9551L64.5059 28.4297C64.4876 28.5026 64.4694 28.5892 64.4512 28.6895C64.4421 28.7897 64.4375 28.8626 64.4375 28.9082C64.4375 29.1178 64.474 29.3001 64.5469 29.4551C64.6289 29.61 64.7702 29.7331 64.9707 29.8242C65.0983 29.8789 65.3672 29.9382 65.7773 30.002C66.1966 30.0566 66.543 30.0885 66.8164 30.0977L66.5977 31H58.3945L58.6133 30.0977C58.8411 30.0794 59.1647 30.0475 59.584 30.002C60.0033 29.9564 60.304 29.8971 60.4863 29.8242C60.8145 29.6966 61.0651 29.5143 61.2383 29.2773C61.4115 29.0312 61.5299 28.7487 61.5938 28.4297L64.8613 14.2656C64.8796 14.1745 64.8932 14.0833 64.9023 13.9922C64.9206 13.8919 64.9297 13.7962 64.9297 13.7051C64.9297 13.5137 64.8932 13.3451 64.8203 13.1992C64.7474 13.0534 64.6107 12.9395 64.4102 12.8574C64.2188 12.7845 63.9408 12.7116 63.5762 12.6387C63.2116 12.5658 62.9108 12.5202 62.6738 12.502L62.8789 11.5996H71.6016C72.3854 11.5996 73.1009 11.6771 73.748 11.832C74.3952 11.987 74.9375 12.2012 75.375 12.4746C75.8581 12.7663 76.2363 13.1491 76.5098 13.623C76.7923 14.097 76.9336 14.6576 76.9336 15.3047C76.9336 16.1615 76.7741 16.9453 76.4551 17.6562C76.1361 18.3581 75.7031 18.9596 75.1562 19.4609C74.582 19.9805 73.9303 20.4134 73.2012 20.7598C72.472 21.097 71.6699 21.3659 70.7949 21.5664C71.5059 22.9427 72.0846 24.0319 72.5312 24.834C72.9779 25.6361 73.502 26.625 74.1035 27.8008C74.4134 28.3932 74.6914 28.8216 74.9375 29.0859C75.1836 29.3411 75.4434 29.5462 75.7168 29.7012C75.9447 29.8288 76.2409 29.9245 76.6055 29.9883C76.9701 30.0521 77.2617 30.0885 77.4805 30.0977ZM73.5703 15.5918C73.5703 14.6621 73.2832 13.9375 72.709 13.418C72.1439 12.8984 71.3464 12.6387 70.3164 12.6387H68.1426L66.2148 21.0605H68.1562C69.651 21.0605 70.9271 20.541 71.9844 19.502C73.0417 18.4538 73.5703 17.1504 73.5703 15.5918ZM91.0703 20.0488C91.0703 21.015 90.765 21.8444 90.1543 22.5371C89.5527 23.2298 88.6732 23.7812 87.5156 24.1914C86.668 24.5013 85.8112 24.752 84.9453 24.9434C84.0794 25.1348 83.1224 25.2943 82.0742 25.4219C82.0742 26.862 82.3385 27.9648 82.8672 28.7305C83.4049 29.487 84.1888 29.8652 85.2188 29.8652C86.1302 29.8652 86.9323 29.6374 87.625 29.1816C88.3268 28.7259 89.015 28.0469 89.6895 27.1445L90.4688 27.7188C89.7396 28.8307 88.8281 29.7194 87.7344 30.3848C86.6406 31.0501 85.5059 31.3828 84.3301 31.3828C82.7168 31.3828 81.4818 30.9316 80.625 30.0293C79.7773 29.127 79.3535 27.8464 79.3535 26.1875C79.3535 25.0391 79.5312 23.9453 79.8867 22.9062C80.2513 21.8581 80.7799 20.901 81.4727 20.0352C82.1471 19.1875 82.972 18.5039 83.9473 17.9844C84.9316 17.4648 86.0163 17.2051 87.2012 17.2051C88.5137 17.2051 89.4844 17.474 90.1133 18.0117C90.7513 18.5404 91.0703 19.2194 91.0703 20.0488ZM88.5547 19.707C88.5547 19.3516 88.5046 19.0736 88.4043 18.873C88.304 18.6634 88.1764 18.5085 88.0215 18.4082C87.8574 18.2988 87.6842 18.2305 87.502 18.2031C87.3197 18.1758 87.1328 18.1621 86.9414 18.1621C85.8477 18.1621 84.8359 18.7637 83.9062 19.9668C82.9857 21.1699 82.4023 22.6693 82.1562 24.4648C82.7943 24.3737 83.5143 24.2461 84.3164 24.082C85.1185 23.9089 85.7839 23.6855 86.3125 23.4121C87.069 23.0202 87.6296 22.5189 87.9941 21.9082C88.3678 21.2884 88.5547 20.5547 88.5547 19.707ZM96.5664 31.3965C95.2174 31.3965 94.0918 31.1595 93.1895 30.6855C92.2962 30.2025 91.8496 29.5736 91.8496 28.7988C91.8496 28.4342 91.9818 28.0924 92.2461 27.7734C92.5104 27.4544 92.834 27.2949 93.2168 27.2949C93.5814 27.2949 93.873 27.3815 94.0918 27.5547C94.3197 27.7188 94.4974 27.9147 94.625 28.1426C94.7617 28.3796 94.8802 28.6621 94.9805 28.9902C95.0898 29.3184 95.181 29.5872 95.2539 29.7969C95.3906 29.9518 95.5775 30.0977 95.8145 30.2344C96.0605 30.362 96.4115 30.4258 96.8672 30.4258C97.8516 30.4258 98.5944 30.1797 99.0957 29.6875C99.6061 29.1953 99.8613 28.5299 99.8613 27.6914C99.8613 27.0716 99.6243 26.5794 99.1504 26.2148C98.6764 25.8411 97.9701 25.4993 97.0312 25.1895C96.694 25.0801 96.2975 24.916 95.8418 24.6973C95.3861 24.4694 95.0215 24.2279 94.748 23.9727C94.4199 23.681 94.1556 23.3346 93.9551 22.9336C93.7546 22.5326 93.6543 22.0586 93.6543 21.5117C93.6543 20.3451 94.1738 19.3379 95.2129 18.4902C96.2611 17.6335 97.5462 17.2051 99.0684 17.2051C99.4238 17.2051 99.8066 17.2233 100.217 17.2598C100.627 17.2962 101.078 17.3965 101.57 17.5605C101.999 17.7064 102.363 17.9251 102.664 18.2168C102.965 18.4993 103.115 18.8685 103.115 19.3242C103.115 19.6979 102.988 20.0397 102.732 20.3496C102.486 20.6504 102.158 20.8008 101.748 20.8008C101.411 20.8008 101.133 20.7279 100.914 20.582C100.695 20.4362 100.513 20.2402 100.367 19.9941C100.221 19.748 100.103 19.4837 100.012 19.2012C99.9206 18.9186 99.8203 18.6406 99.7109 18.3672C99.5378 18.2943 99.3828 18.2441 99.2461 18.2168C99.1094 18.1895 98.9271 18.1758 98.6992 18.1758C97.806 18.1758 97.127 18.4173 96.6621 18.9004C96.2064 19.3743 95.9785 19.9395 95.9785 20.5957C95.9785 21.2337 96.1836 21.7168 96.5938 22.0449C97.013 22.3639 97.7012 22.6966 98.6582 23.043C99.8978 23.4896 100.796 24 101.352 24.5742C101.917 25.1484 102.199 25.8594 102.199 26.707C102.199 28.0924 101.666 29.2227 100.6 30.0977C99.5332 30.9635 98.1888 31.3965 96.5664 31.3965ZM107.846 31.2871C106.98 31.2871 106.346 31.1139 105.945 30.7676C105.544 30.4121 105.344 29.9062 105.344 29.25C105.344 29.0404 105.357 28.8444 105.385 28.6621C105.412 28.4707 105.449 28.2565 105.494 28.0195L107.613 18.8867H105.18L105.467 17.6426H107.955L108.912 13.6367H111.373L110.443 17.6426H114.258L113.971 18.8867H110.184L108.434 26.4199C108.352 26.7663 108.283 27.1035 108.229 27.4316C108.174 27.7507 108.146 28.0241 108.146 28.252C108.146 28.7533 108.27 29.1224 108.516 29.3594C108.771 29.5872 109.227 29.7012 109.883 29.7012C110.12 29.7012 110.452 29.6738 110.881 29.6191C111.309 29.5553 111.642 29.4779 111.879 29.3867L111.646 30.3848C111.008 30.6309 110.407 30.8405 109.842 31.0137C109.277 31.196 108.611 31.2871 107.846 31.2871ZM127.561 22.5781C127.561 23.6536 127.378 24.7292 127.014 25.8047C126.649 26.8802 126.12 27.8236 125.428 28.6348C124.726 29.4733 123.878 30.1478 122.885 30.6582C121.9 31.1595 120.757 31.4102 119.453 31.4102C117.94 31.4102 116.71 30.9225 115.762 29.9473C114.823 28.972 114.354 27.6595 114.354 26.0098C114.354 24.7975 114.554 23.6673 114.955 22.6191C115.356 21.571 115.894 20.6504 116.568 19.8574C117.252 19.0645 118.095 18.4264 119.098 17.9434C120.109 17.4512 121.203 17.2051 122.379 17.2051C124.001 17.2051 125.268 17.7018 126.18 18.6953C127.1 19.6797 127.561 20.974 127.561 22.5781ZM124.771 22.0586C124.771 20.7643 124.539 19.7936 124.074 19.1465C123.618 18.4993 122.958 18.1758 122.092 18.1758C121.335 18.1758 120.62 18.4082 119.945 18.873C119.28 19.3379 118.706 20.0944 118.223 21.1426C117.849 21.9355 117.576 22.8197 117.402 23.7949C117.229 24.7611 117.143 25.6543 117.143 26.4746C117.143 27.778 117.366 28.7669 117.812 29.4414C118.268 30.1068 118.952 30.4395 119.863 30.4395C120.674 30.4395 121.395 30.1842 122.023 29.6738C122.652 29.1634 123.163 28.5163 123.555 27.7324C123.947 26.9668 124.247 26.0918 124.457 25.1074C124.667 24.1139 124.771 23.0977 124.771 22.0586Z" fill="white"/>
</svg>
